# xmcd CD database file
#
# Track frame offsets:
#	150
#	11412
#	24277
#	37740
#	48067
#	60157
#	72145
#	83007
#	96435
#	108192
#	121060
#	131715
#	144620
#	157357
#	168062
#	175642
#
# Disc length: 2567 seconds
#
# Revision: 2
# Processed by: cddbd v1.5.1PL0 Copyright (c) Steve Scherf et al.
# Submitted via: CDex 1.51
#
DISCID=b90a0510
DTITLE=Robert Johnson - Martin Scorsese Presents The Blues
DYEAR=2003
DGENRE=Blues
TTITLE0=Walkin' Blues
TTITLE1=Come On In My Kitchen
TTITLE2=I Believe I'll Dust My Broom
TTITLE3=Stop Breakin' Down Blues
TTITLE4=Traveling Riverside Blues
TTITLE5=Cross Road Blues
TTITLE6=From Four Until Late
TTITLE7=Sweet Home Chicago
TTITLE8=Hellhound On My Trail
TTITLE9=Kind Hearted Woman Blues
TTITLE10=Malted Milk
TTITLE11=Ramblin' On My Mind
TTITLE12=32-20 Blues
TTITLE13=Love In Vain
TTITLE14=Cassandra Wilson - Hot Tamales (They're Red Hot)
TTITLE15=Keb' Mo' - Last Fair Deal Gone Down
EXTD=YEAR: 2003
EXTT0=
EXTT1=
EXTT2=
EXTT3=
EXTT4=
EXTT5=
EXTT6=
EXTT7=
EXTT8=
EXTT9=
EXTT10=
EXTT11=
EXTT12=
EXTT13=
EXTT14=
EXTT15=
PLAYORDER=
